<?xml version="1.0" standalone="no"?>
<!DOCTYPE svg PUBLIC "-//W3C//DTD SVG 20010904//EN"
 "http://www.w3.org/TR/2001/REC-SVG-20010904/DTD/svg10.dtd">
<svg version="1.0" xmlns="http://www.w3.org/2000/svg"
 width="1375.000000pt" height="1263.000000pt" viewBox="0 0 1375.000000 1263.000000"
 preserveAspectRatio="xMidYMid meet">

<g transform="translate(0.000000,1263.000000) scale(0.100000,-0.100000)"
fill="#000000" stroke="none">
<path d="M9635 12624 c-451 -34 -824 -138 -1158 -326 -411 -230 -779 -575
-1213 -1133 -56 -71 -220 -290 -364 -485 -476 -643 -701 -911 -958 -1144 -582
-525 -1072 -707 -2037 -754 l-160 -8 -53 49 c-35 32 -89 66 -158 99 l-106 50
6 61 c4 38 25 105 52 172 25 61 57 144 71 185 47 143 17 303 -80 424 -18 23
-41 62 -51 88 -60 162 -202 284 -386 334 -85 23 -269 23 -362 1 -166 -40 -331
-129 -466 -252 l-62 -57 -20 25 c-11 13 -35 32 -54 41 -25 12 -36 25 -41 49
-11 48 -56 126 -86 148 -65 46 -153 10 -204 -82 -25 -46 -30 -68 -33 -146 -4
-81 -2 -97 21 -145 13 -29 34 -63 46 -75 11 -12 21 -25 21 -28 0 -3 -20 -5
-45 -5 -112 0 -250 -76 -326 -179 -87 -119 -104 -205 -85 -443 15 -183 -19
-231 -206 -294 -92 -30 -117 -43 -163 -85 -116 -107 -153 -281 -86 -409 10
-19 37 -70 60 -113 46 -88 51 -128 21 -187 -27 -52 -70 -83 -189 -135 -158
-69 -245 -139 -316 -255 -60 -98 -88 -200 -89 -320 -1 -112 11 -175 52 -278
l25 -63 -62 -130 c-200 -418 -324 -858 -372 -1314 -19 -176 -16 -559 5 -735
54 -462 200 -935 422 -1370 65 -127 201 -361 189 -325 -17 52 -56 231 -70 325
-36 226 -30 710 10 1012 8 57 22 174 32 260 l17 157 60 5 c34 3 176 10 316 16
271 12 677 36 773 46 l57 6 0 -32 c0 -18 4 -29 10 -25 6 3 10 17 10 30 0 21 6
25 48 30 69 10 73 13 15 14 -29 1 -53 3 -53 5 0 2 16 127 35 277 60 474 105
900 105 999 0 168 -44 285 -145 385 -130 128 -310 184 -528 164 -146 -14 -140
-28 12 -29 89 0 157 -5 200 -16 215 -52 366 -195 400 -378 16 -87 14 -158 -14
-422 -36 -346 -85 -881 -85 -935 l0 -47 -133 -6 c-702 -36 -1108 -62 -1151
-76 -52 -17 -62 -13 -59 22 1 18 7 94 13 168 45 557 185 1085 356 1341 26 39
53 73 60 76 7 2 47 47 89 99 132 162 324 325 475 403 89 46 236 101 338 127
64 16 72 21 68 39 -6 27 -176 962 -176 971 0 3 -9 4 -19 1 -17 -4 -21 4 -31
59 -7 35 -16 64 -21 64 -5 0 -9 -30 -9 -66 l0 -66 -27 7 c-16 3 -41 14 -58 24
-109 63 -172 288 -112 402 26 48 93 105 135 115 52 12 102 38 102 53 0 9 16
39 36 66 104 145 182 363 244 680 31 159 26 149 58 126 175 -123 448 -163 655
-95 l48 16 94 -91 c107 -103 204 -171 247 -171 36 0 64 28 79 82 7 24 15 46
19 51 3 4 12 -51 18 -121 58 -619 29 -998 -98 -1269 -66 -141 -178 -271 -288
-332 -13 -7 -12 -26 12 -158 14 -83 26 -187 26 -231 l0 -81 43 -11 c64 -17
117 -39 170 -71 26 -16 47 -27 47 -25 0 2 -7 20 -15 40 -8 20 -13 36 -10 36 3
0 137 -50 300 -111 162 -60 302 -112 312 -114 10 -2 199 -73 421 -157 l403
-153 -3 -54 -3 -53 480 -174 c264 -96 480 -174 481 -174 1 0 -37 154 -83 343
-170 694 -163 658 -143 665 15 6 7 22 -57 107 -178 238 -303 434 -303 476 0
22 30 25 63 8 12 -7 54 -40 93 -75 40 -34 87 -70 105 -79 30 -16 32 -16 25 1
-4 10 -29 90 -57 178 -161 512 -159 684 3 404 35 -59 49 -77 54 -65 3 10 13
17 21 17 11 0 14 6 9 23 -14 49 -29 174 -23 191 19 49 73 -16 132 -159 21 -50
38 -91 39 -92 0 -1 2 49 4 110 3 134 7 147 36 147 27 0 55 -45 96 -158 l29
-77 -1 81 c-1 86 4 104 27 104 16 0 39 -42 90 -158 l32 -74 12 33 c10 29 13
31 27 18 27 -28 125 -269 280 -693 46 -126 84 -233 84 -237 0 -4 -22 -12 -50
-19 -27 -7 -48 -16 -45 -21 3 -4 27 0 54 11 l48 18 76 -236 c197 -608 304
-1088 314 -1412 l5 -165 -179 -58 c-98 -32 -250 -90 -338 -130 -134 -59 -171
-71 -226 -74 -138 -9 -627 50 -1016 122 -220 40 -213 40 -213 20 0 -8 -4 -15
-8 -15 -13 0 -268 88 -257 89 5 1 65 -11 132 -26 77 -17 127 -23 132 -17 5 5
11 35 13 67 l3 59 -235 47 c-130 27 -246 52 -259 56 -26 8 -26 7 19 -60 15
-22 32 -50 39 -62 l11 -22 -46 14 c-25 7 -47 15 -49 17 -1 2 -6 30 -11 62 -8
55 -11 60 -39 68 -18 4 -39 22 -52 42 -13 20 -36 39 -56 45 -32 11 -34 15 -46
79 -29 158 -102 330 -198 464 -100 139 -151 165 -63 31 105 -158 178 -331 217
-513 19 -91 26 -393 10 -477 -4 -27 -3 -43 2 -43 16 0 40 95 52 210 11 101 13
107 28 90 22 -25 76 -41 90 -27 8 8 11 8 11 -1 0 -7 11 -17 24 -21 26 -11 36
-44 36 -127 0 -106 -42 -330 -59 -319 -4 2 -4 30 0 62 9 72 9 327 0 368 -4 17
-7 -51 -7 -150 -1 -193 -17 -342 -59 -525 -13 -58 -26 -116 -28 -130 -4 -21
-4 -20 -6 7 -3 74 -36 90 -36 17 -1 -54 -28 -84 -76 -84 -26 0 -29 -4 -29 -30
0 -25 4 -30 25 -30 37 0 83 27 103 60 18 28 18 21 41 -328 21 -339 21 -357 5
-369 -14 -10 -20 -10 -25 -1 -5 8 -17 2 -37 -20 -17 -18 -38 -32 -47 -32 -18
0 -18 7 2 -238 5 -72 6 -73 32 -68 14 3 100 8 190 12 140 5 164 9 168 23 7 26
512 171 654 187 101 11 86 -39 -28 -99 -69 -36 -173 -107 -173 -118 0 -3 102
-9 228 -12 349 -10 541 -31 558 -59 11 -17 -19 -37 -80 -52 -52 -14 -179 -29
-424 -51 -40 -4 -72 -9 -70 -10 2 -2 94 -11 205 -20 266 -20 363 -39 363 -70
0 -32 -141 -53 -370 -56 l-125 -1 143 -23 c169 -28 241 -48 273 -75 23 -19 23
-20 5 -35 -28 -21 -92 -28 -234 -23 -127 4 -127 4 -62 -9 110 -23 179 -45 196
-65 10 -10 15 -21 12 -24 -12 -11 -219 -24 -599 -39 l-386 -14 -179 -55 c-331
-102 -533 -153 -694 -175 -225 -32 -218 -30 -222 -54 -3 -19 -22 -26 -168 -59
-879 -201 -1516 -267 -1717 -178 -23 10 -70 37 -105 60 l-63 43 66 -69 67 -69
5 -200 c8 -278 53 -476 148 -655 38 -70 60 -102 159 -225 43 -55 49 -70 23
-61 -16 5 -16 4 -3 -6 8 -7 40 -42 70 -77 333 -390 937 -621 1621 -621 296 0
532 27 1149 130 669 111 664 111 945 99 132 -5 427 -9 655 -8 449 2 418 4 800
-62 242 -42 522 -101 1104 -235 534 -123 848 -189 1084 -228 957 -162 1735
-133 2377 88 515 177 889 439 1035 726 61 119 87 261 71 388 l-10 80 110 273
c143 356 282 726 314 836 40 140 31 170 -37 120 -26 -19 -165 -178 -250 -287
-26 -34 -26 -31 14 80 106 298 134 417 99 428 -20 7 -155 -136 -255 -270 -87
-116 -89 -118 -129 -118 l-40 0 6 37 c4 21 9 68 13 106 l7 67 -32 0 c-30 0
-41 13 -21 25 17 11 217 282 308 418 867 1298 1301 3134 1166 4937 -90 1215
-414 2206 -982 3009 -542 765 -1348 1302 -2256 1502 -246 54 -641 88 -841 73z
m2979 -1933 c67 -106 204 -341 300 -515 l38 -69 -38 8 c-22 4 -39 8 -40 8 0 1
-15 27 -32 58 -37 65 -38 69 -16 69 8 0 12 5 9 10 -3 6 -14 10 -23 10 -12 0
-42 48 -96 148 -43 81 -118 215 -165 297 -47 83 -86 157 -88 165 -3 28 78 -74
151 -189z m375 -613 c-14 -10 -9 -23 39 -110 30 -55 52 -101 51 -103 -26 -23
-1222 -744 -1320 -794 -83 -43 -103 -39 -164 35 -25 31 -45 59 -45 62 1 4 47
34 103 66 134 78 522 318 935 579 220 140 331 215 327 224 -3 7 -8 20 -11 28
-5 12 0 14 24 9 16 -3 38 -1 49 5 23 14 33 13 12 -1z m-3291 -248 c250 -77
528 -190 548 -221 4 -7 7 -27 6 -46 -1 -33 1 -35 72 -68 41 -18 77 -39 81 -46
24 -38 -14 -119 -56 -119 -26 0 -217 69 -345 125 -153 67 -398 190 -413 209
-8 9 -10 26 -7 43 6 27 3 30 -58 60 -68 34 -85 58 -66 93 16 31 58 26 238 -30z
m-1312 -773 c16 -18 45 -58 64 -90 24 -39 41 -57 55 -57 11 0 32 -8 47 -18 27
-16 291 -411 311 -463 6 -14 7 -37 3 -52 -7 -29 -27 -45 -276 -218 l-164 -114
-62 0 c-73 0 -110 24 -182 116 -25 33 -50 59 -56 59 -24 0 -87 63 -135 135
-53 80 -108 210 -117 279 -6 38 -4 46 15 56 30 15 53 -1 123 -82 52 -62 188
-197 198 -198 3 0 46 33 95 73 50 39 106 83 123 97 31 24 32 26 17 47 l-16 22
-105 -69 c-121 -80 -151 -86 -196 -43 -59 56 -26 111 133 219 38 26 69 51 69
55 0 4 -8 16 -17 28 l-18 22 -95 -71 c-125 -92 -169 -115 -203 -106 -44 11
-67 41 -67 87 0 35 6 45 46 82 25 23 105 86 177 139 155 113 184 122 233 65z
m3186 -518 c85 -18 173 -65 244 -131 68 -64 103 -115 129 -187 8 -23 28 -59
44 -79 66 -85 109 -214 97 -297 -17 -127 -106 -248 -223 -303 -52 -24 -69 -27
-163 -27 -97 0 -110 2 -172 32 -37 17 -88 52 -113 78 -45 45 -95 132 -95 168
0 10 -24 41 -53 70 -77 76 -102 133 -102 232 1 69 5 89 33 145 30 61 60 100
109 143 17 15 25 16 42 7 27 -14 27 -52 0 -76 -68 -60 -77 -194 -21 -282 15
-23 15 -23 42 25 36 62 92 116 116 111 27 -5 30 -46 5 -71 -28 -31 -61 -106
-61 -143 0 -28 5 -34 43 -49 96 -40 198 -16 269 63 38 42 74 122 65 145 -9 23
-94 47 -210 59 -71 7 -116 17 -128 27 -23 19 -28 73 -9 95 18 23 75 36 155 36
68 1 69 1 42 16 -38 21 -150 43 -217 44 -106 2 -153 37 -137 102 13 50 144 73
269 47z m-7551 -736 c13 -16 12 -17 -3 -4 -10 7 -18 15 -18 17 0 8 8 3 21 -13z
m6288 -197 c61 -45 81 -99 61 -163 -36 -113 -166 -145 -247 -61 -31 32 -53 75
-53 102 0 8 18 15 46 19 57 6 93 32 119 86 11 22 25 41 31 41 5 0 25 -11 43
-24z m-6172 -158 c-2 -18 -4 -4 -4 32 0 36 2 50 4 33 2 -18 2 -48 0 -65z
m2828 32 c122 -42 232 -137 289 -250 18 -36 47 -87 65 -115 116 -181 85 -383
-78 -512 -108 -85 -256 -105 -393 -53 -77 29 -163 107 -198 181 -15 31 -44 76
-65 100 -107 124 -116 277 -25 419 59 92 115 123 143 79 7 -12 1 -27 -26 -62
-54 -71 -68 -133 -46 -211 l11 -39 28 49 c16 27 45 66 65 86 30 31 40 36 55
28 31 -17 34 -31 11 -58 -43 -55 -64 -106 -65 -161 -1 -51 1 -56 32 -77 18
-13 58 -28 88 -35 47 -11 63 -10 107 4 29 9 68 30 89 47 46 38 88 121 88 175
0 34 -5 43 -27 57 -47 27 -130 47 -224 54 -106 8 -139 26 -139 76 0 36 24 68
52 68 10 0 18 5 18 10 0 6 -27 10 -60 10 -64 0 -113 18 -124 45 -19 51 10 91
74 105 65 13 186 4 255 -20z m1893 -80 c27 -25 27 -49 7 -220 -26 -222 -104
-590 -133 -622 -19 -22 -75 -23 -96 -2 -19 19 -21 101 -6 309 18 254 59 506
87 538 24 25 112 24 141 -3z m147 -182 c34 -15 39 -41 31 -166 -12 -198 -90
-655 -117 -688 -15 -19 -54 -18 -73 2 -19 18 -20 62 -6 294 11 185 24 312 46
445 19 117 49 145 119 113z m-5085 -162 c0 -2 -8 -10 -17 -17 -16 -13 -17 -12
-4 4 13 16 21 21 21 13z m8309 -315 c86 -13 106 -33 106 -106 0 -76 -15 -89
-118 -96 l-82 -6 110 -2 c230 -4 289 -23 287 -93 -2 -61 -22 -68 -211 -68
-207 0 -597 34 -656 56 -17 7 -20 51 -6 73 12 18 105 29 266 32 138 2 129 4
-151 39 -94 11 -193 26 -220 33 l-49 12 -3 46 c-4 69 10 77 159 88 140 11 471
6 568 -8z m-11478 -148 c13 -16 12 -17 -3 -4 -17 13 -22 21 -14 21 2 0 10 -8
17 -17z m50 -50 c13 -16 12 -17 -3 -4 -17 13 -22 21 -14 21 2 0 10 -8 17 -17z
m9285 -405 c27 -18 79 -64 116 -103 36 -38 117 -124 180 -190 124 -131 193
-227 317 -439 120 -207 116 -218 -90 -259 -146 -29 -582 -97 -622 -97 -13 0
-37 10 -52 22 -26 20 -27 25 -23 82 l5 62 -66 -4 c-120 -7 -122 4 -61 393 66
426 83 517 100 525 8 4 29 14 45 23 48 26 95 21 151 -15z m-1640 -492 c111
-116 95 -314 -37 -446 -28 -28 -55 -50 -62 -50 -7 0 -82 36 -169 79 -115 58
-151 81 -135 85 11 3 45 -2 75 -9 71 -19 119 -7 160 39 39 45 46 88 27 179
-12 57 -13 82 -4 103 29 79 81 86 145 20z m-4539 -208 c-3 -8 -6 -5 -6 6 -1
11 2 17 5 13 3 -3 4 -12 1 -19z m5604 -1395 c13 -16 12 -17 -3 -4 -10 7 -18
15 -18 17 0 8 8 3 21 -13z m148 -193 c219 -291 459 -677 620 -997 l51 -103
-37 1 -38 0 -65 136 c-168 351 -411 769 -620 1062 -92 130 -34 65 89 -99z
m-3200 84 c63 -32 105 -86 120 -154 12 -57 6 -99 -21 -154 -59 -117 -188 -159
-306 -100 -170 84 -171 321 -3 407 73 36 138 36 210 1z m1135 -393 c70 -57
216 -204 302 -306 l59 -70 -87 82 c-47 45 -115 103 -150 129 -66 49 -191 114
-218 114 -15 0 -61 -141 -217 -671 l-14 -46 -95 -18 c-52 -10 -97 -16 -99 -13
-4 4 61 236 186 659 19 66 19 66 70 82 28 10 76 17 105 17 l54 0 12 45 c7 25
16 45 21 45 5 0 37 -22 71 -49z"/>
<path d="M8282 8915 c13 -28 30 -32 48 -10 10 12 8 16 -15 25 -40 15 -46 12
-33 -15z"/>
<path d="M8497 8612 c-15 -16 -15 -21 -2 -38 8 -10 15 -17 15 -14 0 3 4 20 9
38 11 36 2 41 -22 14z"/>
<path d="M8463 8375 l-152 -113 25 -23 c23 -22 26 -22 57 -7 17 8 69 45 114
81 45 35 98 75 117 87 37 22 38 30 4 71 -12 15 -29 4 -165 -96z"/>
<path d="M8695 8446 l-29 -23 19 -29 19 -29 13 45 c17 59 14 64 -22 36z"/>
<path d="M11918 7945 c-26 -49 -124 -134 -184 -162 -42 -19 -79 -27 -146 -31
l-89 -5 21 -22 c12 -12 44 -35 73 -51 165 -91 354 37 345 234 l-3 67 -17 -30z"/>
<path d="M7184 6824 c-71 -71 -148 -106 -248 -112 l-80 -5 45 -23 c52 -27 141
-32 194 -10 46 20 111 89 130 141 10 24 16 47 14 52 -2 4 -27 -15 -55 -43z"/>
<path d="M9930 6093 c0 -16 7 -38 15 -49 14 -18 15 -16 13 25 -3 50 -28 71
-28 24z"/>
<path d="M9967 5960 c-3 -14 -15 -140 -27 -280 -12 -140 -24 -263 -26 -272 -5
-18 20 -26 29 -10 3 4 24 113 46 242 23 129 44 242 46 251 3 8 -10 33 -29 55
-34 39 -34 39 -39 14z"/>
<path d="M10117 5623 c-10 -102 -15 -188 -13 -191 5 -5 276 35 283 41 9 9
-217 314 -245 331 -5 3 -16 -79 -25 -181z"/>
<path d="M10431 5461 c-12 -8 -11 -15 7 -42 l21 -33 12 26 c20 44 -3 72 -40
49z"/>
<path d="M9885 5375 c-5 -2 -23 -6 -38 -9 l-28 -7 31 -26 c26 -21 33 -24 41
-12 8 12 13 60 7 58 -2 0 -7 -2 -13 -4z"/>
<path d="M10505 5323 c-27 -7 -133 -28 -234 -46 -122 -22 -186 -38 -189 -47
-3 -9 1 -11 12 -7 9 4 121 23 248 42 128 20 235 38 237 41 3 2 -2 10 -10 17
-11 11 -23 11 -64 0z"/>
<path d="M10633 5303 c-39 -5 -39 -7 -9 -56 l24 -38 26 47 c14 25 26 48 26 50
0 4 -13 3 -67 -3z"/>
<path d="M10027 5210 c-20 -4 -40 -9 -43 -12 -3 -3 13 -20 35 -37 l39 -31 7
41 c4 22 5 41 3 43 -1 1 -20 -1 -41 -4z"/>
<path d="M4713 12445 c-72 -13 -203 -53 -203 -61 0 -3 9 -2 20 1 11 3 20 4 20
1 0 -6 -265 -166 -275 -166 -4 0 -1 8 6 18 10 12 8 12 -10 -3 -13 -11 -27 -29
-32 -40 -5 -11 -34 -49 -64 -85 -159 -188 -241 -482 -205 -735 47 -338 225
-587 521 -729 121 -59 227 -86 364 -93 445 -23 779 239 902 706 22 83 26 118
26 256 1 133 -2 175 -21 247 -67 268 -209 460 -432 585 -171 96 -415 135 -617
98z"/>
<path d="M4444 12354 c-18 -14 -18 -14 6 -3 31 14 36 19 24 19 -6 0 -19 -7
-30 -16z"/>
<path d="M4363 12305 c-28 -19 -55 -39 -58 -46 -6 -9 83 49 110 73 21 19 -4 6
-52 -27z"/>
<path d="M2778 9224 c-50 -27 -36 -43 35 -37 34 2 73 7 87 9 l25 6 -24 19
c-28 23 -85 24 -123 3z"/>
<path d="M2617 9015 c-4 -22 -2 -175 5 -341 6 -165 8 -313 4 -328 -5 -22 -11
-27 -26 -23 -23 6 -26 -6 -6 -22 24 -20 54 4 67 52 16 59 -7 580 -30 672 l-7
30 -7 -40z"/>
<path d="M2135 9026 c-33 -14 -61 -43 -52 -52 6 -6 142 23 161 34 15 8 -26 32
-53 32 -14 -1 -40 -7 -56 -14z"/>
<path d="M2850 8939 c0 -29 18 -59 35 -59 17 0 20 33 5 61 -14 25 -40 24 -40
-2z"/>
<path d="M2100 8899 c0 -29 18 -59 35 -59 17 0 20 33 5 61 -14 25 -40 24 -40
-2z"/>
<path d="M1612 8462 c4 -28 1 -44 -13 -61 -34 -42 -15 -132 32 -146 34 -11 42
9 14 35 -27 25 -34 70 -11 70 7 0 20 8 27 18 12 15 12 16 -2 5 -17 -14 -29 -8
-29 15 0 8 6 12 15 8 19 -7 19 -2 -1 51 -21 54 -38 56 -32 5z"/>
<path d="M2334 8208 c13 -81 77 -150 154 -164 49 -9 115 13 153 52 41 42 33
52 -20 25 -48 -25 -120 -27 -166 -5 -35 16 -75 62 -96 108 -19 41 -32 31 -25
-16z"/>
<path d="M2755 7671 c-107 -67 -187 -94 -300 -99 -124 -6 -195 11 -319 73 -49
25 -92 42 -95 39 -12 -12 95 -96 164 -129 145 -70 294 -71 440 -2 69 33 185
126 185 148 0 14 -12 10 -75 -30z"/>
</g>
</svg>
