<?xml version="1.0" standalone="no"?>
<!DOCTYPE svg PUBLIC "-//W3C//DTD SVG 20010904//EN"
 "http://www.w3.org/TR/2001/REC-SVG-20010904/DTD/svg10.dtd">
<svg version="1.0" xmlns="http://www.w3.org/2000/svg"
 width="1179.000000pt" height="1308.000000pt" viewBox="0 0 1179.000000 1308.000000"
 preserveAspectRatio="xMidYMid meet">

<g transform="translate(0.000000,1308.000000) scale(0.100000,-0.100000)"
fill="#000000" stroke="none">
<path d="M6735 11281 c-6 -11 13 -26 22 -17 4 3 1 6 -6 6 -7 0 -9 5 -6 10 3 6
4 10 1 10 -3 0 -7 -4 -11 -9z"/>
<path d="M6380 11265 c-19 -22 -8 -25 13 -3 9 10 13 18 8 18 -5 0 -14 -7 -21
-15z"/>
<path d="M6426 11250 c7 -28 12 -35 18 -29 2 2 -2 15 -10 29 l-15 25 7 -25z"/>
<path d="M6705 11210 c3 -5 8 -10 11 -10 2 0 4 5 4 10 0 6 -5 10 -11 10 -5 0
-7 -4 -4 -10z"/>
<path d="M6766 11203 c-6 -14 -5 -15 5 -6 7 7 10 15 7 18 -3 3 -9 -2 -12 -12z"/>
<path d="M6460 11186 c0 -2 8 -10 18 -17 15 -13 16 -12 3 4 -13 16 -21 21 -21
13z"/>
<path d="M6563 11145 c0 -8 4 -15 9 -15 4 0 8 4 8 9 0 6 -4 12 -8 15 -5 3 -9
-1 -9 -9z"/>
<path d="M6709 11123 l-24 -28 28 24 c15 14 27 26 27 28 0 8 -8 1 -31 -24z"/>
<path d="M6607 11089 c7 -7 15 -10 18 -7 3 3 -2 9 -12 12 -14 6 -15 5 -6 -5z"/>
<path d="M6691 11064 c0 -11 3 -14 6 -6 3 7 2 16 -1 19 -3 4 -6 -2 -5 -13z"/>
<path d="M6753 10990 c0 -47 2 -66 4 -42 2 23 2 61 0 85 -2 23 -4 4 -4 -43z"/>
<path d="M6401 11024 c0 -11 3 -14 6 -6 3 7 2 16 -1 19 -3 4 -6 -2 -5 -13z"/>
<path d="M6503 10785 c0 -22 2 -30 4 -17 2 12 2 30 0 40 -3 9 -5 -1 -4 -23z"/>
<path d="M6759 10742 c-3 -20 -2 -29 4 -23 5 5 7 19 5 32 -3 20 -5 19 -9 -9z"/>
<path d="M6175 9851 c-86 -39 -150 -145 -126 -211 11 -32 10 -32 -17 -26 -15
4 -92 9 -172 12 -164 7 -246 -6 -332 -53 -154 -84 -226 -295 -142 -418 l25
-38 -25 -26 c-56 -58 -71 -152 -37 -226 23 -53 99 -119 159 -140 26 -9 82 -19
124 -22 l78 -6 6 -36 c22 -132 57 -186 120 -184 52 2 186 96 305 213 l96 95
79 -23 c99 -30 289 -40 400 -23 121 20 280 82 367 143 16 11 29 19 31 17 2 -2
15 -67 30 -144 74 -377 161 -625 279 -800 44 -64 134 -165 148 -165 5 0 27 16
49 36 52 47 95 138 116 244 21 109 15 310 -14 420 -11 41 -19 75 -18 76 91 45
156 111 187 194 92 242 -69 474 -354 513 l-85 11 27 40 c23 35 26 49 26 130 0
81 -3 96 -27 137 -54 91 -135 146 -265 180 -62 15 -111 19 -257 19 -220 0
-325 11 -470 50 -134 36 -248 40 -311 11z"/>
<path d="M5988 8518 c-48 -17 -35 -38 25 -38 28 0 77 -3 107 -7 52 -6 54 -5
40 12 -33 40 -113 55 -172 33z"/>
<path d="M6845 8316 c-16 -12 -17 -15 -5 -19 8 -3 46 -14 84 -26 71 -23 82
-22 73 3 -16 42 -116 70 -152 42z"/>
<path d="M6387 8275 c-15 -49 -43 -384 -53 -630 -7 -179 2 -224 48 -258 23
-17 32 -19 53 -9 35 16 31 30 -7 28 -29 -1 -34 3 -46 39 -11 32 -11 67 -3 175
28 356 33 733 8 655z"/>
<path d="M6110 8145 c-21 -56 -6 -125 22 -97 19 19 22 96 4 111 -13 11 -17 9
-26 -14z"/>
<path d="M6900 8055 c-14 -38 -12 -81 5 -95 12 -10 16 -7 25 16 14 35 9 96 -7
102 -7 2 -17 -8 -23 -23z"/>
<path d="M7627 7583 c-48 -76 -49 -81 -28 -93 11 -5 29 -10 40 -10 41 0 20
-60 -28 -80 -34 -14 -32 -30 2 -30 34 0 86 36 93 65 9 38 -4 74 -32 87 -19 9
-24 17 -20 32 3 12 9 31 12 44 10 35 -13 26 -39 -15z m13 -60 c-1 -20 -18 -33
-35 -27 -17 7 -17 8 1 21 20 14 34 17 34 6z"/>
<path d="M1611 7308 c-101 -69 -92 -214 19 -291 37 -26 128 -23 170 6 49 32
74 81 74 143 0 58 -16 90 -70 130 -52 40 -144 46 -193 12z"/>
<path d="M6720 7301 c-47 -114 -197 -162 -332 -107 -62 25 -72 22 -35 -11 110
-101 312 -71 377 57 21 40 27 90 11 90 -5 0 -14 -13 -21 -29z"/>
<path d="M6135 6650 c30 -33 114 -76 215 -112 93 -32 98 -33 265 -33 164 1
173 2 263 32 89 30 202 89 202 105 0 11 -7 10 -38 -6 -58 -29 -192 -68 -287
-82 -177 -28 -378 2 -549 80 -91 42 -95 43 -71 16z"/>
<path d="M7922 5810 c-195 -51 -326 -175 -389 -365 -22 -68 -27 -103 -31 -235
-8 -286 57 -581 218 -984 103 -259 273 -599 303 -604 40 -8 26 35 -76 236
-176 346 -281 614 -350 888 -46 183 -61 306 -55 462 8 193 56 320 164 428 65
65 185 126 294 151 48 11 80 23 80 30 0 19 -72 15 -158 -7z"/>
<path d="M5056 4911 c-4 -5 -24 -83 -46 -173 -96 -397 -167 -830 -205 -1248
-21 -229 -20 -242 7 -238 21 3 24 16 65 293 53 361 167 1103 192 1250 10 61
17 113 14 118 -6 10 -21 9 -27 -2z"/>
<path d="M6765 4059 c-133 -10 -145 -13 -145 -32 0 -18 1001 -18 1007 0 10 30
-53 36 -397 39 -190 1 -399 -2 -465 -7z"/>
<path d="M3113 3863 c9 -2 23 -2 30 0 6 3 -1 5 -18 5 -16 0 -22 -2 -12 -5z"/>
<path d="M2933 3853 c9 -2 23 -2 30 0 6 3 -1 5 -18 5 -16 0 -22 -2 -12 -5z"/>
<path d="M2753 3843 c9 -2 23 -2 30 0 6 3 -1 5 -18 5 -16 0 -22 -2 -12 -5z"/>
<path d="M2563 3833 c9 -2 23 -2 30 0 6 3 -1 5 -18 5 -16 0 -22 -2 -12 -5z"/>
<path d="M2390 2857 c0 -2 15 -16 33 -33 l32 -29 -29 33 c-28 30 -36 37 -36
29z"/>
<path d="M4238 1543 c6 -2 18 -2 25 0 6 3 1 5 -13 5 -14 0 -19 -2 -12 -5z"/>
<path d="M4403 1533 c9 -2 23 -2 30 0 6 3 -1 5 -18 5 -16 0 -22 -2 -12 -5z"/>
<path d="M4568 1523 c6 -2 18 -2 25 0 6 3 1 5 -13 5 -14 0 -19 -2 -12 -5z"/>
<path d="M4733 1513 c9 -2 23 -2 30 0 6 3 -1 5 -18 5 -16 0 -22 -2 -12 -5z"/>
<path d="M4898 1503 c6 -2 18 -2 25 0 6 3 1 5 -13 5 -14 0 -19 -2 -12 -5z"/>
<path d="M5063 1493 c9 -2 23 -2 30 0 6 3 -1 5 -18 5 -16 0 -22 -2 -12 -5z"/>
<path d="M5223 1483 c9 -2 23 -2 30 0 6 3 -1 5 -18 5 -16 0 -22 -2 -12 -5z"/>
<path d="M5388 1473 c6 -2 18 -2 25 0 6 3 1 5 -13 5 -14 0 -19 -2 -12 -5z"/>
<path d="M5553 1463 c9 -2 23 -2 30 0 6 3 -1 5 -18 5 -16 0 -22 -2 -12 -5z"/>
<path d="M5718 1453 c6 -2 18 -2 25 0 6 3 1 5 -13 5 -14 0 -19 -2 -12 -5z"/>
<path d="M5883 1443 c9 -2 23 -2 30 0 6 3 -1 5 -18 5 -16 0 -22 -2 -12 -5z"/>
<path d="M6048 1433 c6 -2 18 -2 25 0 6 3 1 5 -13 5 -14 0 -19 -2 -12 -5z"/>
<path d="M6213 1423 c9 -2 23 -2 30 0 6 3 -1 5 -18 5 -16 0 -22 -2 -12 -5z"/>
<path d="M6373 1413 c9 -2 23 -2 30 0 6 3 -1 5 -18 5 -16 0 -22 -2 -12 -5z"/>
<path d="M6543 1403 c9 -2 23 -2 30 0 6 3 -1 5 -18 5 -16 0 -22 -2 -12 -5z"/>
<path d="M6703 1393 c9 -2 23 -2 30 0 6 3 -1 5 -18 5 -16 0 -22 -2 -12 -5z"/>
<path d="M6703 1243 c9 -2 25 -2 35 0 9 3 1 5 -18 5 -19 0 -27 -2 -17 -5z"/>
<path d="M5923 1233 c32 -2 81 -2 110 0 29 2 3 3 -58 3 -60 0 -84 -1 -52 -3z"/>
<path d="M5098 1223 c28 -2 76 -2 105 0 28 2 5 3 -53 3 -58 0 -81 -1 -52 -3z"/>
<path d="M4238 1213 c12 -2 32 -2 45 0 12 2 2 4 -23 4 -25 0 -35 -2 -22 -4z"/>
</g>
</svg>
